FFmpeg version SVN-r25716, Copyright (c) 2000-2010 the FFmpeg developers  built on Nov 10 2010 12:23:18 with gcc 4.1.2 20080704 (Red Hat 4.1.2-48)  configuration: --enable-libmp3lame --enable-shared --disable-mmx --arch=x86_64  libavutil     50.33. 0 / 50.33. 0  libavcore      0.12. 1 /  0.12. 1  libavcodec    52.94. 4 / 52.94. 4  libavformat   52.84. 0 / 52.84. 0  libavdevice   52. 2. 2 / 52. 2. 2  libavfilter    1.59. 0 /  1.59. 0  libswscale     0.12. 0 /  0.12. 0Input #0, avi, from '/RAID10/data/converted_video_files/47535.avi':  Duration: 00:00:05.26, start: 0.000000, bitrate: 283012 kb/s    Stream #0.0: Video: msvideo1, rgb555le, 1024x1024, 30 tbr, 30 tbn, 30 tbc[buffer @ 0xef80490] w:1024 h:1024 pixfmt:rgb555le[ffsink @ 0xef7f920] auto-inserting filter 'auto-inserted scaler 0' between the filter 'src' and the filter 'out'[scale @ 0xef7e820] w:1024 h:1024 fmt:rgb555le -> w:1024 h:1024 fmt:yuv420p flags:0x4Output #0, flv, to '/RAID10/data/converted_video_files/47535.flv':  Metadata:    encoder         : Lavf52.84.0    Stream #0.0: Video: flv, yuv420p, 1024x1024, q=2-31, 600 kb/s, 1k tbn, 24 tbcStream mapping:  Stream #0.0 -> #0.0Press [q] to stop encodingframe=    7 fps=  0 q=10.0 size=     902kB time=0.29 bitrate=25318.7kbits/s dup=0 drop=1    frame=   11 fps=  8 q=14.8 size=    1018kB time=0.46 bitrate=18202.8kbits/s dup=0 drop=2    frame=   19 fps= 10 q=31.0 size=    1034kB time=0.79 bitrate=10695.7kbits/s dup=0 drop=4    frame=   28 fps= 12 q=31.0 size=    1066kB time=1.17 bitrate=7486.0kbits/s dup=0 drop=7    frame=   35 fps= 12 q=31.0 size=    1098kB time=1.46 bitrate=6169.7kbits/s dup=0 drop=8    frame=   42 fps= 12 q=31.0 size=    1104kB time=1.75 bitrate=5166.4kbits/s dup=0 drop=10    frame=   52 fps= 13 q=31.0 size=    1138kB time=2.17 bitrate=4300.4kbits/s dup=0 drop=12    frame=   60 fps= 13 q=31.0 size=    1173kB time=2.50 bitrate=3843.6kbits/s dup=0 drop=15    frame=   67 fps= 13 q=31.0 size=    1180kB time=2.79 bitrate=3460.8kbits/s dup=0 drop=16    frame=   77 fps= 14 q=31.0 size=    1212kB time=3.21 bitrate=3095.3kbits/s dup=0 drop=19    frame=   85 fps= 14 q=31.0 size=    1243kB time=3.54 bitrate=2874.8kbits/s dup=0 drop=21    frame=   93 fps= 14 q=24.8 size=    1274kB time=3.88 bitrate=2693.2kbits/s dup=0 drop=23    frame=  101 fps= 14 q=31.0 size=    1279kB time=4.21 bitrate=2489.7kbits/s dup=0 drop=25    frame=  107 fps= 14 q=31.0 size=    1309kB time=4.46 bitrate=2404.5kbits/s dup=0 drop=27    frame=  115 fps= 14 q=31.0 size=    1313kB time=4.79 bitrate=2244.8kbits/s dup=0 drop=28    frame=  121 fps= 14 q=31.0 size=    1343kB time=5.04 bitrate=2182.0kbits/s dup=0 drop=30    frame=  127 fps= 14 q=31.0 Lsize=    1347kB time=5.29 bitrate=2085.6kbits/s dup=0 drop=31    video:1345kB audio:0kB global headers:0kB muxing overhead 0.162769%